<svg xmlns="http://www.w3.org/2000/svg" viewBox="0 0 178.62 42.64"><defs><style>.a{fill:#fff;}.b{fill:#039;}.c{fill:#fc0;}</style></defs><title>Asset 1</title><path class="a" d="M68.67,11.78V1.33h7.7V3.1h-5.6V5.41H76V7.17H70.77V10h5.79v1.76Zm14.62,0V10.64a2.94,2.94,0,0,1-1.08,1A3.06,3.06,0,0,1,80.8,12a2.67,2.67,0,0,1-1.36-.34,1.94,1.94,0,0,1-.87-.94A4.18,4.18,0,0,1,78.3,9V4.21h2V7.69a9.13,9.13,0,0,0,.11,2,1.05,1.05,0,0,0,.39.57,1.24,1.24,0,0,0,.74.21,1.51,1.51,0,0,0,.91-.28,1.45,1.45,0,0,0,.56-.7,8.8,8.8,0,0,0,.14-2V4.21h2v7.57Zm5.81,0h-2V4.21H89V5.28a3.37,3.37,0,0,1,.85-1A1.59,1.59,0,0,1,90.67,4,2.5,2.5,0,0,1,92,4.41l-.61,1.75a1.75,1.75,0,0,0-.94-.33,1.11,1.11,0,0,0-.7.23,1.58,1.58,0,0,0-.46.84,12,12,0,0,0-.17,2.54Zm3.27-3.89A4.23,4.23,0,0,1,92.86,6a3.44,3.44,0,0,1,1.38-1.42,4.09,4.09,0,0,1,2-.49A3.76,3.76,0,0,1,99,5.15,3.88,3.88,0,0,1,100.13,8,3.92,3.92,0,0,1,99,10.82,3.73,3.73,0,0,1,96.26,12a4.36,4.36,0,0,1-2-.47,3.18,3.18,0,0,1-1.43-1.38,4.69,4.69,0,0,1-.49-2.21Zm2,.1a2.56,2.56,0,0,0,.53,1.73,1.73,1.73,0,0,0,2.62,0A2.57,2.57,0,0,0,98.08,8a2.52,2.52,0,0,0-.52-1.71,1.73,1.73,0,0,0-2.62,0A2.53,2.53,0,0,0,94.41,8Zm7.23-3.78h1.85V5.32a2.82,2.82,0,0,1,1-.93A2.73,2.73,0,0,1,105.83,4a2.86,2.86,0,0,1,2.23,1A4.25,4.25,0,0,1,109,8a4.36,4.36,0,0,1-.92,3,2.87,2.87,0,0,1-2.23,1,2.47,2.47,0,0,1-1.13-.25,3.71,3.71,0,0,1-1.06-.86v3.82h-2Zm2,3.65a2.9,2.9,0,0,0,.51,1.89,1.51,1.51,0,0,0,1.22.61,1.43,1.43,0,0,0,1.15-.56A2.87,2.87,0,0,0,106.94,8a2.7,2.7,0,0,0-.47-1.76,1.46,1.46,0,0,0-1.17-.58,1.54,1.54,0,0,0-1.22.57,2.5,2.5,0,0,0-.48,1.67Zm11.31,1.51,2,.33a3.33,3.33,0,0,1-1.21,1.68,3.55,3.55,0,0,1-2.06.57,3.34,3.34,0,0,1-2.9-1.29A4.33,4.33,0,0,1,110,8.05a4.22,4.22,0,0,1,1-3A3.19,3.19,0,0,1,113.42,4a3.34,3.34,0,0,1,2.65,1.11A5,5,0,0,1,117,8.57h-5a2.12,2.12,0,0,0,.48,1.39,1.51,1.51,0,0,0,1.15.49,1.2,1.2,0,0,0,.78-.25,1.6,1.6,0,0,0,.49-.83Zm.11-2A1.92,1.92,0,0,0,114.57,6a1.35,1.35,0,0,0-1-.45,1.4,1.4,0,0,0-1.08.48,1.84,1.84,0,0,0-.41,1.29Zm5.09-.82-1.81-.33a2.9,2.9,0,0,1,1-1.63A3.84,3.84,0,0,1,121.56,4a4.77,4.77,0,0,1,2,.31,2.06,2.06,0,0,1,.92.81A4.26,4.26,0,0,1,124.72,7l0,2.34a7.45,7.45,0,0,0,.1,1.47,4.26,4.26,0,0,0,.35,1h-2a5.54,5.54,0,0,1-.2-.59,1.54,1.54,0,0,0-.07-.24,3.67,3.67,0,0,1-1.09.75,3,3,0,0,1-1.23.25,2.54,2.54,0,0,1-1.83-.63,2.12,2.12,0,0,1-.67-1.61,2.16,2.16,0,0,1,.3-1.14,2,2,0,0,1,.85-.77,6.52,6.52,0,0,1,1.59-.47,11.38,11.38,0,0,0,1.93-.49v-.2a1.06,1.06,0,0,0-.29-.83,1.68,1.68,0,0,0-1.06-.24,1.41,1.41,0,0,0-.83.21,1.45,1.45,0,0,0-.48.74Zm2.66,1.62a11.76,11.76,0,0,1-1.21.31,3.38,3.38,0,0,0-1.08.35.83.83,0,0,0-.39.7,1,1,0,0,0,.31.73,1,1,0,0,0,.79.31,1.72,1.72,0,0,0,1-.36,1.27,1.27,0,0,0,.47-.66,4.08,4.08,0,0,0,.08-1Zm10.75,3.64h-2V7.91a6.18,6.18,0,0,0-.13-1.58,1.09,1.09,0,0,0-.42-.56,1.19,1.19,0,0,0-.69-.2,1.56,1.56,0,0,0-.92.28,1.42,1.42,0,0,0-.56.76,6.11,6.11,0,0,0-.16,1.74v3.43h-2V4.21h1.85V5.32A3,3,0,0,1,131,4a3.09,3.09,0,0,1,1.2.23,2.16,2.16,0,0,1,.83.61,2.45,2.45,0,0,1,.39.85,6.57,6.57,0,0,1,.1,1.34Zm6-10.45h2.09V7a11.8,11.8,0,0,0,.08,1.74,1.65,1.65,0,0,0,.64,1,2.22,2.22,0,0,0,1.38.39,2.13,2.13,0,0,0,1.35-.36,1.47,1.47,0,0,0,.54-.91,10.39,10.39,0,0,0,.1-1.77V1.33h2.09V6.82a14.56,14.56,0,0,1-.17,2.66,2.92,2.92,0,0,1-.63,1.31,3.17,3.17,0,0,1-1.22.85,5.27,5.27,0,0,1-2,.32,5.77,5.77,0,0,1-2.26-.35,3.23,3.23,0,0,1-1.21-.9,2.91,2.91,0,0,1-.59-1.16,13.27,13.27,0,0,1-.2-2.65Zm17.31,10.45h-2V7.91a5.74,5.74,0,0,0-.13-1.58,1.07,1.07,0,0,0-.41-.56,1.19,1.19,0,0,0-.69-.2,1.57,1.57,0,0,0-.93.28,1.47,1.47,0,0,0-.56.76A6.63,6.63,0,0,0,152,8.35v3.43h-2V4.21h1.85V5.32A3,3,0,0,1,154.35,4a3.09,3.09,0,0,1,1.2.23,2.09,2.09,0,0,1,.83.61,2.13,2.13,0,0,1,.39.85,6.44,6.44,0,0,1,.11,1.34Zm2-8.6V1.33h2V3.18Zm0,8.6V4.21h2v7.57Zm3.56-3.89A4.11,4.11,0,0,1,163,6a3.44,3.44,0,0,1,1.38-1.42,4.09,4.09,0,0,1,2-.49,3.76,3.76,0,0,1,2.8,1.11A3.92,3.92,0,0,1,170.22,8a3.92,3.92,0,0,1-1.1,2.85A3.73,3.73,0,0,1,166.35,12a4.36,4.36,0,0,1-2-.47A3.18,3.18,0,0,1,163,10.1a4.57,4.57,0,0,1-.49-2.21Zm2,.1A2.56,2.56,0,0,0,165,9.72a1.73,1.73,0,0,0,2.62,0A2.57,2.57,0,0,0,168.17,8a2.52,2.52,0,0,0-.52-1.71,1.73,1.73,0,0,0-2.62,0A2.53,2.53,0,0,0,164.5,8Zm14.12,3.79h-2V7.91a5.74,5.74,0,0,0-.13-1.58,1.07,1.07,0,0,0-.41-.56,1.19,1.19,0,0,0-.69-.2,1.57,1.57,0,0,0-.93.28,1.47,1.47,0,0,0-.56.76,6.63,6.63,0,0,0-.15,1.74v3.43h-2V4.21h1.85V5.32A3,3,0,0,1,176.09,4a3.18,3.18,0,0,1,1.21.23,2,2,0,0,1,1.21,1.46,6.44,6.44,0,0,1,.11,1.34Z"/><path class="a" d="M69,26.76V19.2h5.44v.9H70v2.31h4.16v.89H70v2.57h4.62v.89Zm10.46,0V26a2,2,0,0,1-1.73.93,2.26,2.26,0,0,1-.9-.18,1.47,1.47,0,0,1-.62-.47,1.8,1.8,0,0,1-.29-.69,4.6,4.6,0,0,1,0-.86V21.29h.92v3a5.17,5.17,0,0,0,.06,1,.93.93,0,0,0,.37.57,1.11,1.11,0,0,0,.69.21,1.52,1.52,0,0,0,.78-.21,1.17,1.17,0,0,0,.52-.58,3,3,0,0,0,.15-1.07V21.29h.93v5.47Zm2.27,0V21.29h.83v.82a2.23,2.23,0,0,1,.59-.76,1,1,0,0,1,.59-.19,1.79,1.79,0,0,1,1,.3l-.32.86a1.33,1.33,0,0,0-.67-.2.89.89,0,0,0-.55.18,1,1,0,0,0-.34.51,3.71,3.71,0,0,0-.16,1.08v2.87ZM84.91,24a2.83,2.83,0,0,1,.84-2.25,2.51,2.51,0,0,1,1.71-.61,2.45,2.45,0,0,1,1.84.74,2.81,2.81,0,0,1,.72,2,3.67,3.67,0,0,1-.32,1.67,2.31,2.31,0,0,1-.92.94,2.69,2.69,0,0,1-1.32.33,2.42,2.42,0,0,1-1.85-.74,2.93,2.93,0,0,1-.7-2.12Zm1,0a2.38,2.38,0,0,0,.45,1.58,1.5,1.5,0,0,0,1.15.52,1.46,1.46,0,0,0,1.15-.53,2.41,2.41,0,0,0,.46-1.6,2.3,2.3,0,0,0-.46-1.54,1.53,1.53,0,0,0-2.3,0A2.35,2.35,0,0,0,85.86,24Zm5.25,4.83V21.29H92V22a2.09,2.09,0,0,1,.67-.63,1.83,1.83,0,0,1,.91-.21,2.13,2.13,0,0,1,2,1.38A3.77,3.77,0,0,1,95.84,24a3.67,3.67,0,0,1-.3,1.51,2.28,2.28,0,0,1-2.08,1.39,1.75,1.75,0,0,1-.83-.19,2.11,2.11,0,0,1-.6-.5v2.66Zm.83-4.8a2.33,2.33,0,0,0,.43,1.56,1.3,1.3,0,0,0,1,.51,1.38,1.38,0,0,0,1.06-.52A2.52,2.52,0,0,0,94.89,24a2.46,2.46,0,0,0-.42-1.56,1.29,1.29,0,0,0-1-.52,1.32,1.32,0,0,0-1,.55,2.45,2.45,0,0,0-.46,1.61Zm8.75.95,1,.11a2.35,2.35,0,0,1-.84,1.31,2.84,2.84,0,0,1-3.46-.28,2.87,2.87,0,0,1-.7-2.07,3.06,3.06,0,0,1,.71-2.15,2.41,2.41,0,0,1,1.84-.76,2.3,2.3,0,0,1,1.78.75,2.94,2.94,0,0,1,.7,2.1c0,.06,0,.14,0,.25H97.61a2.11,2.11,0,0,0,.5,1.38,1.53,1.53,0,0,0,1.14.48,1.41,1.41,0,0,0,.87-.27,1.77,1.77,0,0,0,.57-.85Zm-3-1.5h3a1.88,1.88,0,0,0-.35-1,1.39,1.39,0,0,0-1.14-.54,1.48,1.48,0,0,0-1.07.43,1.71,1.71,0,0,0-.48,1.15Zm8.71,2.58a3.42,3.42,0,0,1-1,.62,2.84,2.84,0,0,1-1,.18,2,2,0,0,1-1.38-.44,1.46,1.46,0,0,1-.48-1.13,1.52,1.52,0,0,1,.18-.73,1.45,1.45,0,0,1,.48-.53,2.22,2.22,0,0,1,.66-.31c.18,0,.46-.09.83-.14a8,8,0,0,0,1.64-.32c0-.12,0-.2,0-.24a1.05,1.05,0,0,0-.26-.8,1.56,1.56,0,0,0-1.06-.31,1.66,1.66,0,0,0-1,.23,1.37,1.37,0,0,0-.46.81l-.9-.12a2.32,2.32,0,0,1,.4-.94,1.7,1.7,0,0,1,.82-.55,3.62,3.62,0,0,1,1.24-.2,3.24,3.24,0,0,1,1.13.17,1.51,1.51,0,0,1,.64.41,1.41,1.41,0,0,1,.29.63,5.31,5.31,0,0,1,0,.86v1.23a13,13,0,0,0,.06,1.64,2,2,0,0,0,.23.66h-1a1.94,1.94,0,0,1-.19-.68ZM106.29,24a6.25,6.25,0,0,1-1.51.35,3.45,3.45,0,0,0-.8.19.85.85,0,0,0-.37.3.84.84,0,0,0-.13.44.82.82,0,0,0,.28.62,1.23,1.23,0,0,0,.82.24,1.83,1.83,0,0,0,1-.23,1.45,1.45,0,0,0,.61-.64,2.24,2.24,0,0,0,.15-.93Zm2.38,2.75V21.29h.83v.77a2,2,0,0,1,1.73-.9,2.27,2.27,0,0,1,.91.18,1.44,1.44,0,0,1,.62.47,2,2,0,0,1,.29.68,5.83,5.83,0,0,1,0,.9v3.37h-.93V23.43a2.32,2.32,0,0,0-.11-.85.87.87,0,0,0-.38-.45A1.22,1.22,0,0,0,111,22a1.47,1.47,0,0,0-1,.37,1.85,1.85,0,0,0-.43,1.43v3Zm8.9,0V19.2h3.34a4.31,4.31,0,0,1,1.53.21,1.61,1.61,0,0,1,.83.72,2.12,2.12,0,0,1,.32,1.13,1.94,1.94,0,0,1-.52,1.36,2.62,2.62,0,0,1-1.6.7,2.6,2.6,0,0,1,.6.38,5,5,0,0,1,.82,1l1.31,2.06H123l-1-1.57c-.29-.46-.53-.8-.71-1a2.2,2.2,0,0,0-.51-.51,1.43,1.43,0,0,0-.46-.2,3.16,3.16,0,0,0-.55,0h-1.15v3.36Zm1-4.22h2.14a3.27,3.27,0,0,0,1.06-.14,1.15,1.15,0,0,0,.59-.46,1.26,1.26,0,0,0,.2-.68,1.13,1.13,0,0,0-.39-.88A1.8,1.8,0,0,0,121,20h-2.38ZM128.77,25l.95.11a2.39,2.39,0,0,1-.83,1.31,2.52,2.52,0,0,1-1.57.46,2.48,2.48,0,0,1-1.89-.74,2.87,2.87,0,0,1-.7-2.07,3,3,0,0,1,.71-2.15,2.4,2.4,0,0,1,1.83-.76,2.33,2.33,0,0,1,1.79.75,3,3,0,0,1,.69,2.1v.25h-4.07a2.16,2.16,0,0,0,.51,1.38,1.5,1.5,0,0,0,1.14.48,1.41,1.41,0,0,0,.87-.27,1.77,1.77,0,0,0,.57-.85Zm-3-1.5h3a1.88,1.88,0,0,0-.35-1,1.43,1.43,0,0,0-1.15-.54,1.5,1.5,0,0,0-1.07.43,1.71,1.71,0,0,0-.48,1.15Zm5,3.71.9.13a.82.82,0,0,0,.31.61,1.54,1.54,0,0,0,.94.26,1.64,1.64,0,0,0,1-.26,1.26,1.26,0,0,0,.47-.72A5.93,5.93,0,0,0,134.4,26a1.89,1.89,0,0,1-1.51.72,2,2,0,0,1-1.74-.82,3.13,3.13,0,0,1-.62-2,3.6,3.6,0,0,1,.29-1.44,2.15,2.15,0,0,1,2.08-1.39,1.94,1.94,0,0,1,1.59.79v-.66h.85V26a4.56,4.56,0,0,1-.26,1.81,2,2,0,0,1-.82.84,2.93,2.93,0,0,1-1.38.31,2.62,2.62,0,0,1-1.58-.44,1.49,1.49,0,0,1-.58-1.33Zm.76-3.29a2.43,2.43,0,0,0,.43,1.58A1.34,1.34,0,0,0,133,26a1.37,1.37,0,0,0,1.07-.49,2.35,2.35,0,0,0,.43-1.55,2.21,2.21,0,0,0-.45-1.51,1.36,1.36,0,0,0-1.07-.51,1.32,1.32,0,0,0-1,.5,2.23,2.23,0,0,0-.44,1.49Zm5.27-3.65V19.2h.92v1.07Zm0,6.49V21.29h.92v5.47Zm2-2.74a2.83,2.83,0,0,1,.84-2.25,2.52,2.52,0,0,1,1.72-.61,2.43,2.43,0,0,1,1.83.74,2.81,2.81,0,0,1,.72,2,3.67,3.67,0,0,1-.32,1.67,2.25,2.25,0,0,1-.92.94,2.68,2.68,0,0,1-1.31.33,2.4,2.4,0,0,1-1.85-.74,2.89,2.89,0,0,1-.71-2.12Zm.95,0a2.33,2.33,0,0,0,.46,1.58,1.51,1.51,0,0,0,2.29,0,2.35,2.35,0,0,0,.46-1.6,2.3,2.3,0,0,0-.46-1.54,1.46,1.46,0,0,0-1.14-.52,1.44,1.44,0,0,0-1.15.52,2.3,2.3,0,0,0-.46,1.57Zm5.25,2.74V21.29h.83v.77a2,2,0,0,1,1.73-.9,2.27,2.27,0,0,1,.91.18,1.38,1.38,0,0,1,.62.47,1.82,1.82,0,0,1,.29.68,5.83,5.83,0,0,1,.05.9v3.37h-.93V23.43a2.61,2.61,0,0,0-.1-.85.94.94,0,0,0-.39-.45,1.22,1.22,0,0,0-.64-.16,1.47,1.47,0,0,0-1,.37,1.85,1.85,0,0,0-.43,1.43v3Zm9.41-.68a3.42,3.42,0,0,1-1,.62,2.88,2.88,0,0,1-1,.18,2,2,0,0,1-1.38-.44,1.46,1.46,0,0,1-.48-1.13,1.52,1.52,0,0,1,.18-.73,1.45,1.45,0,0,1,.48-.53,2,2,0,0,1,.66-.31c.18,0,.46-.09.82-.14a7.94,7.94,0,0,0,1.65-.32c0-.12,0-.2,0-.24a1,1,0,0,0-.27-.8,1.51,1.51,0,0,0-1-.31,1.66,1.66,0,0,0-1,.23,1.37,1.37,0,0,0-.46.81l-.9-.12a2.19,2.19,0,0,1,.4-.94,1.7,1.7,0,0,1,.82-.55,3.58,3.58,0,0,1,1.24-.2,3.24,3.24,0,0,1,1.13.17,1.57,1.57,0,0,1,.64.41,1.53,1.53,0,0,1,.29.63,5.31,5.31,0,0,1,.05.86v1.23c0,.87,0,1.41,0,1.64a2,2,0,0,0,.24.66h-1a2.18,2.18,0,0,1-.18-.68ZM154.27,24a6.25,6.25,0,0,1-1.51.35,3.45,3.45,0,0,0-.8.19.85.85,0,0,0-.37.3.76.76,0,0,0-.13.44.82.82,0,0,0,.28.62,1.23,1.23,0,0,0,.82.24,1.86,1.86,0,0,0,.95-.23,1.45,1.45,0,0,0,.61-.64,2.24,2.24,0,0,0,.15-.93Zm2.35,2.75V19.2h.93v7.56Z"/><path class="a" d="M69,40V32.39h2.59a6.3,6.3,0,0,1,1.34.11A2.62,2.62,0,0,1,74,33a3.21,3.21,0,0,1,.89,1.29,5.31,5.31,0,0,1,.29,1.8,5,5,0,0,1-.2,1.52,3.51,3.51,0,0,1-.51,1.1,2.66,2.66,0,0,1-.69.69,2.69,2.69,0,0,1-.89.38A5.54,5.54,0,0,1,71.7,40Zm1-.89h1.6a4,4,0,0,0,1.17-.14,1.93,1.93,0,0,0,.68-.39,2.48,2.48,0,0,0,.55-1,4.77,4.77,0,0,0,.2-1.46,3.52,3.52,0,0,0-.39-1.82,2,2,0,0,0-.94-.85,4,4,0,0,0-1.29-.15H70Zm10.21-.87,1,.11a2.35,2.35,0,0,1-.84,1.31,2.84,2.84,0,0,1-3.46-.28,2.91,2.91,0,0,1-.7-2.07,3.06,3.06,0,0,1,.71-2.15,2.43,2.43,0,0,1,1.84-.76,2.34,2.34,0,0,1,1.79.75,3,3,0,0,1,.69,2.1v.25H77.11a2.06,2.06,0,0,0,.51,1.38,1.5,1.5,0,0,0,1.14.48,1.38,1.38,0,0,0,.86-.27,1.77,1.77,0,0,0,.57-.85Zm-3-1.5h3a1.88,1.88,0,0,0-.34-1,1.43,1.43,0,0,0-1.15-.54,1.5,1.5,0,0,0-1.07.43,1.71,1.71,0,0,0-.48,1.15ZM83.83,40l-2.07-5.47h1l1.17,3.27c.13.36.24.72.35,1.1.08-.28.2-.63.34-1l1.22-3.33h1L84.69,40Zm7.48-1.76,1,.11a2.35,2.35,0,0,1-.84,1.31A2.82,2.82,0,0,1,88,39.33a2.87,2.87,0,0,1-.71-2.07A3.06,3.06,0,0,1,88,35.11a2.44,2.44,0,0,1,1.84-.76,2.33,2.33,0,0,1,1.79.75,3,3,0,0,1,.69,2.1v.25H88.22a2.06,2.06,0,0,0,.51,1.38,1.5,1.5,0,0,0,1.14.48,1.41,1.41,0,0,0,.87-.27,1.77,1.77,0,0,0,.57-.85Zm-3-1.5h3a2,2,0,0,0-.35-1,1.43,1.43,0,0,0-1.15-.54,1.5,1.5,0,0,0-1.07.43,1.71,1.71,0,0,0-.48,1.15ZM93.41,40V32.39h.92V40Zm2-2.74A2.8,2.8,0,0,1,96.27,35,2.49,2.49,0,0,1,98,34.35a2.46,2.46,0,0,1,1.84.74,2.84,2.84,0,0,1,.71,2,3.68,3.68,0,0,1-.31,1.67,2.31,2.31,0,0,1-.92.94,2.69,2.69,0,0,1-1.32.33,2.42,2.42,0,0,1-1.85-.74,2.93,2.93,0,0,1-.71-2.12Zm1,0a2.38,2.38,0,0,0,.46,1.58,1.52,1.52,0,0,0,2.3,0,2.41,2.41,0,0,0,.45-1.6,2.25,2.25,0,0,0-.46-1.54A1.43,1.43,0,0,0,98,35.12a1.45,1.45,0,0,0-1.15.52,2.35,2.35,0,0,0-.46,1.57ZM101.62,42V34.48h.84v.71a2.12,2.12,0,0,1,.68-.63,1.81,1.81,0,0,1,.9-.21,2.18,2.18,0,0,1,1.24.36,2.22,2.22,0,0,1,.8,1,4,4,0,0,1,.28,1.44,3.84,3.84,0,0,1-.31,1.51,2.27,2.27,0,0,1-.87,1,2.21,2.21,0,0,1-1.2.36,1.72,1.72,0,0,1-.83-.19,1.86,1.86,0,0,1-.6-.5V42Zm.84-4.8a2.38,2.38,0,0,0,.42,1.56,1.32,1.32,0,0,0,1,.51,1.34,1.34,0,0,0,1-.52,2.52,2.52,0,0,0,.44-1.63A2.4,2.4,0,0,0,105,35.6a1.27,1.27,0,0,0-1-.52,1.32,1.32,0,0,0-1,.55,2.51,2.51,0,0,0-.45,1.61Zm5,2.71V34.48h.83v.76a2,2,0,0,1,.68-.64,2.07,2.07,0,0,1,2,0,1.33,1.33,0,0,1,.54.71,2,2,0,0,1,1.69-1,1.66,1.66,0,0,1,1.25.45,2,2,0,0,1,.43,1.39V40h-.92V36.5a2.52,2.52,0,0,0-.09-.8.72.72,0,0,0-.32-.39,1,1,0,0,0-.56-.15,1.26,1.26,0,0,0-1,.38,1.68,1.68,0,0,0-.38,1.23V40h-.93V36.39a1.6,1.6,0,0,0-.22-.93.87.87,0,0,0-.74-.3,1.31,1.31,0,0,0-.72.2,1.2,1.2,0,0,0-.48.6,3.44,3.44,0,0,0-.15,1.15V40ZM120,38.19l1,.11a2.39,2.39,0,0,1-.83,1.31,2.52,2.52,0,0,1-1.57.46,2.48,2.48,0,0,1-1.89-.74,2.87,2.87,0,0,1-.7-2.07,3.06,3.06,0,0,1,.7-2.15,2.44,2.44,0,0,1,1.84-.76,2.33,2.33,0,0,1,1.79.75,3,3,0,0,1,.69,2.1v.25h-4.07a2.11,2.11,0,0,0,.51,1.38,1.5,1.5,0,0,0,1.14.48,1.41,1.41,0,0,0,.87-.27,1.77,1.77,0,0,0,.57-.85Zm-3-1.5h3a1.88,1.88,0,0,0-.35-1,1.43,1.43,0,0,0-1.15-.54,1.5,1.5,0,0,0-1.07.43,1.71,1.71,0,0,0-.48,1.15ZM122.1,40V34.48h.83v.77a2,2,0,0,1,1.73-.9,2.24,2.24,0,0,1,.91.18,1.38,1.38,0,0,1,.62.47,1.82,1.82,0,0,1,.29.68,5.83,5.83,0,0,1,0,.9V40h-.93V36.62a2.61,2.61,0,0,0-.1-.85.94.94,0,0,0-.39-.45,1.19,1.19,0,0,0-.64-.16,1.51,1.51,0,0,0-1,.37A1.85,1.85,0,0,0,123,37v3Zm7.87-.83.13.82a3.76,3.76,0,0,1-.7.08,1.56,1.56,0,0,1-.78-.16,1,1,0,0,1-.39-.42,3.49,3.49,0,0,1-.11-1.09V35.2h-.68v-.72h.68V33.12l.92-.56v1.92H130v.72H129v3.2a1.73,1.73,0,0,0,.05.51.39.39,0,0,0,.16.18.66.66,0,0,0,.31.06l.41,0Zm4,.83V32.39H139v.9H135v2.33h3.53v.9H135V40Zm9.84,0v-.81a2,2,0,0,1-1.73.93,2.27,2.27,0,0,1-.91-.18,1.61,1.61,0,0,1-.62-.47,1.79,1.79,0,0,1-.28-.69,4.41,4.41,0,0,1-.06-.86V34.48h.93v3a6.64,6.64,0,0,0,0,1,1,1,0,0,0,.37.57,1.14,1.14,0,0,0,.7.21,1.52,1.52,0,0,0,.78-.21,1.21,1.21,0,0,0,.52-.58,3,3,0,0,0,.15-1.07V34.48h.92V40Zm2.28,0V34.48h.83v.77a2,2,0,0,1,1.73-.9,2.27,2.27,0,0,1,.91.18,1.44,1.44,0,0,1,.62.47,2,2,0,0,1,.29.68,5.83,5.83,0,0,1,.05.9V40h-.93V36.62a2.61,2.61,0,0,0-.1-.85.94.94,0,0,0-.39-.45,1.22,1.22,0,0,0-.64-.16,1.47,1.47,0,0,0-1,.37A1.85,1.85,0,0,0,147,37v3Zm9.39,0v-.69a1.71,1.71,0,0,1-1.53.81,2.16,2.16,0,0,1-1.2-.36,2.4,2.4,0,0,1-.84-1,3.46,3.46,0,0,1-.3-1.48,4,4,0,0,1,.27-1.49,2.13,2.13,0,0,1,.81-1,2.18,2.18,0,0,1,1.22-.36,1.82,1.82,0,0,1,.88.21,2,2,0,0,1,.63.54V32.39h.91V40Zm-2.92-2.73a2.35,2.35,0,0,0,.44,1.57,1.31,1.31,0,0,0,2.07,0,2.32,2.32,0,0,0,.42-1.52,2.55,2.55,0,0,0-.43-1.64,1.3,1.3,0,0,0-1.06-.53,1.29,1.29,0,0,0-1,.5,2.49,2.49,0,0,0-.41,1.6Z"/><rect class="b" width="63.99" height="42.64"/><polygon class="c" points="31.95 4.67 31.41 6.3 29.66 6.3 31.07 7.34 30.54 8.97 31.95 7.96 33.33 8.97 32.79 7.34 34.23 6.3 32.48 6.3 31.95 4.67"/><polygon class="c" points="17.71 18.94 17.18 20.6 15.43 20.6 16.87 21.6 16.33 23.23 17.71 22.26 19.12 23.23 18.59 21.6 20 20.6 18.25 20.6 17.71 18.94"/><polygon class="c" points="46.15 18.94 45.62 20.57 43.86 20.57 45.27 21.6 44.74 23.23 46.15 22.23 47.53 23.23 46.99 21.6 48.44 20.57 46.68 20.57 46.15 18.94"/><polygon class="c" points="31.98 33.11 31.45 34.74 29.69 34.74 31.13 35.77 30.6 37.4 31.98 36.4 33.39 37.4 32.85 35.77 34.27 34.74 32.51 34.74 31.98 33.11"/><polygon class="c" points="39.03 6.52 38.5 8.15 36.74 8.15 38.15 9.19 37.62 10.82 39.03 9.81 40.44 10.82 39.91 9.19 41.32 8.15 39.56 8.15 39.03 6.52"/><polygon class="c" points="44.2 11.76 43.67 13.39 41.92 13.39 43.33 14.42 42.79 16.05 44.2 15.05 45.62 16.05 45.05 14.42 46.49 13.39 44.74 13.39 44.2 11.76"/><polygon class="c" points="44.3 25.93 43.77 27.56 42.01 27.56 43.42 28.59 42.89 30.22 44.3 29.22 45.68 30.22 45.15 28.59 46.59 27.56 44.83 27.56 44.3 25.93"/><polygon class="c" points="39.09 31.13 38.56 32.79 36.81 32.79 38.22 33.8 37.68 35.43 39.09 34.42 40.47 35.43 39.94 33.8 41.38 32.79 39.63 32.79 39.09 31.13"/><polygon class="c" points="24.86 31.13 24.33 32.76 22.57 32.76 24.02 33.8 23.48 35.43 24.86 34.42 26.27 35.43 25.74 33.8 27.15 32.76 25.39 32.76 24.86 31.13"/><polygon class="c" points="19.66 25.9 19.12 27.56 17.37 27.56 18.78 28.56 18.25 30.19 19.66 29.22 21.07 30.19 20.54 28.56 21.95 27.56 20.19 27.56 19.66 25.9"/><polygon class="c" points="19.63 11.76 19.09 13.39 17.34 13.39 18.78 14.42 18.25 16.05 19.63 15.05 21.04 16.05 20.5 14.42 21.91 13.39 20.16 13.39 19.63 11.76"/><polygon class="c" points="24.86 6.52 24.33 8.18 22.57 8.18 23.98 9.22 23.45 10.85 24.86 9.84 26.27 10.85 25.74 9.22 27.15 8.18 25.39 8.18 24.86 6.52"/></svg>