<svg xmlns="http://www.w3.org/2000/svg" viewBox="0 0 232.66 40.47"><defs><style>.a{fill:#fff;}</style></defs><title>Asset 2</title><path class="a" d="M27,39.69h-7.5v-4h-.17a10.24,10.24,0,0,1-8.78,4.78C2.11,40.47,0,35.75,0,28.63V11H7.9V27.19c0,4.72,1.38,7.06,5,7.06,4.28,0,6.12-2.39,6.12-8.23V11H27Z"/><path class="a" d="M32.19,19.79c.44-7.39,7.06-9.62,13.51-9.62,5.72,0,12.62,1.28,12.62,8.18V33.3c0,2.61.28,5.23,1,6.39h-8a11.71,11.71,0,0,1-.55-2.78c-2.5,2.62-6.17,3.56-9.68,3.56-5.44,0-9.78-2.72-9.78-8.61,0-6.51,4.89-8.07,9.78-8.73s9.34-.56,9.34-3.78c0-3.39-2.33-3.89-5.11-3.89-3,0-5,1.22-5.23,4.33Zm18.23,5.84c-1.33,1.17-4.11,1.22-6.56,1.67s-4.67,1.33-4.67,4.22,2.28,3.67,4.84,3.67c6.17,0,6.39-4.89,6.39-6.61Z"/><path class="a" d="M64.38,0h7.89V39.69H64.38Z"/><path class="a" d="M89.73,20H81V11.45h8.73ZM81,31.13h8.73v8.56H81Z"/><path class="a" d="M102.57,6.77h2.76V20.64h-2.76Z"/><path class="a" d="M111.93,10.33a4.92,4.92,0,0,1,5.2,5.3,5.2,5.2,0,1,1-10.39,0A4.92,4.92,0,0,1,111.93,10.33Zm0,8.5c1.88,0,2.45-1.61,2.45-3.2s-.57-3.23-2.45-3.23S109.5,14,109.5,15.63,110.06,18.83,111.93,18.83Z"/><path class="a" d="M118.63,10.6h2.62V12h.06a3.55,3.55,0,0,1,3.06-1.67c2.94,0,3.67,1.65,3.67,4.13v6.18h-2.75V15c0-1.65-.49-2.47-1.77-2.47-1.5,0-2.14.84-2.14,2.87v5.27h-2.75Z"/><path class="a" d="M137,19.36h0a3.33,3.33,0,0,1-3,1.55c-3,0-4.51-2.6-4.51-5.38s1.5-5.2,4.45-5.2a3.45,3.45,0,0,1,3,1.49h0V6.77h2.75V20.64H137Zm-2.41-7c-1.8,0-2.42,1.56-2.42,3.21s.72,3.22,2.42,3.22S137,17.24,137,15.59,136.37,12.4,134.58,12.4Z"/><path class="a" d="M146.27,10.33a4.93,4.93,0,0,1,5.21,5.3,5.2,5.2,0,1,1-10.39,0A4.92,4.92,0,0,1,146.27,10.33Zm0,8.5c1.89,0,2.45-1.61,2.45-3.2s-.56-3.23-2.45-3.23-2.42,1.62-2.42,3.23S144.41,18.83,146.27,18.83Z"/><path class="a" d="M153,10.6h2.62V12h.06a3.57,3.57,0,0,1,3.07-1.67c2.93,0,3.67,1.65,3.67,4.13v6.18h-2.76V15c0-1.65-.49-2.47-1.77-2.47-1.49,0-2.13.84-2.13,2.87v5.27H153Z"/><path class="a" d="M175.61,14.13a1.89,1.89,0,0,0-2-1.73c-1.77,0-2.35,1.79-2.35,3.27s.56,3.16,2.29,3.16a2.13,2.13,0,0,0,2.2-2h2.66a4.49,4.49,0,0,1-4.84,4.12,4.88,4.88,0,0,1-5.07-5.15c0-3.12,1.87-5.43,5.13-5.43,2.37,0,4.54,1.24,4.72,3.8Z"/><path class="a" d="M184.54,10.33a4.92,4.92,0,0,1,5.2,5.3,5.2,5.2,0,1,1-10.39,0A4.92,4.92,0,0,1,184.54,10.33Zm0,8.5c1.88,0,2.44-1.61,2.44-3.2s-.56-3.23-2.44-3.23-2.43,1.62-2.43,3.23S182.67,18.83,184.54,18.83Z"/><path class="a" d="M191.27,6.77H194V20.64h-2.76Z"/><path class="a" d="M196,6.77h2.76V20.64H196Z"/><path class="a" d="M202.94,16.29c.08,1.74.93,2.54,2.47,2.54a2.26,2.26,0,0,0,2.17-1.3H210a4.52,4.52,0,0,1-4.7,3.38c-3.16,0-5.12-2.18-5.12-5.28a5,5,0,0,1,5.12-5.3c3.42,0,5.07,2.87,4.88,6Zm4.49-1.75c-.25-1.4-.86-2.14-2.2-2.14a2.18,2.18,0,0,0-2.29,2.14Z"/><path class="a" d="M221.21,20c0,1.65-.58,4.44-5.2,4.44-2,0-4.29-.93-4.43-3.22h2.74a1.87,1.87,0,0,0,2.06,1.38c1.53,0,2.23-1.05,2.21-2.49V18.79h0a3.39,3.39,0,0,1-3,1.56c-3,0-4.29-2.3-4.29-5.05s1.5-5,4.31-5a3.11,3.11,0,0,1,3,1.61h0V10.6h2.62Zm-2.62-4.51c0-1.63-.56-3.09-2.35-3.09-1.55,0-2.23,1.36-2.23,2.86s.54,3,2.23,3S218.59,16.93,218.59,15.49Z"/><path class="a" d="M225.4,16.29c.08,1.74.94,2.54,2.47,2.54a2.28,2.28,0,0,0,2.18-1.3h2.42a4.51,4.51,0,0,1-4.7,3.38c-3.16,0-5.12-2.18-5.12-5.28a5,5,0,0,1,5.12-5.3c3.42,0,5.07,2.87,4.88,6Zm4.49-1.75c-.25-1.4-.85-2.14-2.19-2.14a2.18,2.18,0,0,0-2.3,2.14Z"/><path class="a" d="M106.63,29.42a4.93,4.93,0,0,1,5.2,5.3,5.2,5.2,0,1,1-10.39,0A4.93,4.93,0,0,1,106.63,29.42Zm0,8.51c1.88,0,2.45-1.62,2.45-3.21s-.57-3.22-2.45-3.22-2.43,1.61-2.43,3.22S104.76,37.93,106.63,37.93Z"/><path class="a" d="M113.85,31.54H112.2V29.69h1.65v-.77c0-1.77,1.11-3.05,3.36-3.05.48,0,1,.06,1.46.08V28c-.33,0-.66-.05-1-.05-.74,0-1,.31-1,1.14v.6h1.9v1.85h-1.9v8.19h-2.76Z"/><path class="a" d="M124.35,31.54H122.7V29.69h1.65v-.77c0-1.77,1.11-3.05,3.36-3.05.49,0,1,.06,1.46.08V28c-.33,0-.66-.05-1-.05-.74,0-1,.31-1,1.14v.6H129v1.85h-1.9v8.19h-2.76Z"/><path class="a" d="M129.85,32.78c.15-2.58,2.46-3.36,4.72-3.36,2,0,4.4.45,4.4,2.86V37.5a5.15,5.15,0,0,0,.35,2.23h-2.79a4,4,0,0,1-.2-1A4.6,4.6,0,0,1,133,40c-1.9,0-3.41-1-3.41-3,0-2.27,1.71-2.81,3.41-3s3.27-.2,3.27-1.32-.82-1.36-1.79-1.36-1.73.42-1.83,1.51Zm6.37,2a5.41,5.41,0,0,1-2.3.58c-.85.18-1.63.47-1.63,1.48s.8,1.28,1.69,1.28a2.05,2.05,0,0,0,2.24-2.31Z"/><path class="a" d="M143,36.47c0,1.2,1,1.69,2.12,1.69.79,0,1.8-.31,1.8-1.28s-1.14-1.13-3.12-1.56c-1.6-.34-3.19-.91-3.19-2.68,0-2.56,2.22-3.22,4.37-3.22s4.22.74,4.43,3.21h-2.62c-.08-1.07-.9-1.36-1.89-1.36-.62,0-1.53.11-1.53.93,0,1,1.55,1.12,3.13,1.49s3.18,1,3.18,2.82c0,2.64-2.29,3.49-4.58,3.49s-4.6-.87-4.72-3.53Z"/><path class="a" d="M151,25.87h2.76v5.22h.05a3.55,3.55,0,0,1,2.94-1.67c2.93,0,3.67,1.65,3.67,4.14v6.17h-2.76V34.06c0-1.65-.49-2.46-1.77-2.46-1.49,0-2.13.83-2.13,2.87v5.26H151Z"/><path class="a" d="M165.12,28.14h-2.75V25.87h2.75Zm-2.75,1.55h2.75v10h-2.75Z"/><path class="a" d="M171.92,29.42a4.93,4.93,0,0,1,5.2,5.3,5.2,5.2,0,1,1-10.39,0A4.93,4.93,0,0,1,171.92,29.42Zm0,8.51c1.88,0,2.44-1.62,2.44-3.21s-.56-3.22-2.44-3.22-2.43,1.61-2.43,3.22S170.05,37.93,171.92,37.93Z"/><path class="a" d="M178.65,29.69h2.63v1.4h.05a3.61,3.61,0,0,1,3.07-1.67c2.93,0,3.67,1.65,3.67,4.14v6.17h-2.76V34.06c0-1.65-.48-2.46-1.76-2.46-1.5,0-2.14.83-2.14,2.87v5.26h-2.76Z"/></svg>